<svg width="24" height="24" viewBox="0 0 24 24" fill="none" xmlns="http://www.w3.org/2000/svg">
<path d="M6.70417 16.2968H7.46762H20.4845C20.799 16.2968 21.0761 16.0902 21.1659 15.7888L23.9704 6.37213C24.0345 6.15697 23.9932 5.92419 23.859 5.74419C23.7248 5.56419 23.5135 5.45816 23.289 5.45816H5.19324L4.23643 2.24534C4.14666 1.94393 3.86949 1.7373 3.55496 1.7373H0.711048C0.318376 1.73726 0 2.05559 0 2.44831C0 2.84098 0.318376 3.15935 0.711048 3.15935H3.02485L3.97712 6.35675C3.98002 6.3673 3.98307 6.37775 3.98644 6.38806L6.51611 14.8819C5.07217 14.979 3.92687 16.184 3.92687 17.6521C3.92687 19.1836 5.17276 20.4295 6.70412 20.4295H7.41001C7.7185 21.4871 8.69613 22.2624 9.85207 22.2624C11.008 22.2624 11.9856 21.4871 12.2941 20.4295H16.0667C16.3752 21.4871 17.3528 22.2624 18.5088 22.2624C19.6647 22.2624 20.6423 21.4871 20.9508 20.4295H21.8669C22.2596 20.4295 22.5779 20.1111 22.5779 19.7184C22.5779 19.3257 22.2596 19.0074 21.8669 19.0074H20.9508C20.6423 17.9497 19.6647 17.1744 18.5088 17.1744C17.3528 17.1744 16.3752 17.9497 16.0667 19.0074H12.2941C11.9856 17.9497 11.008 17.1744 9.85207 17.1744C8.69613 17.1744 7.71845 17.9497 7.41001 19.0074H6.70412C5.95684 19.0074 5.34892 18.3994 5.34892 17.6521C5.34892 16.9048 5.95689 16.2968 6.70417 16.2968ZM17.135 6.88016H22.3354L21.3566 10.1664H17.135V6.88016ZM17.135 11.5885H20.9331L19.9543 14.8748H17.135V11.5885ZM11.8736 6.88016H15.713V10.1664H11.8736V6.88016ZM11.8736 11.5885H15.7129V14.8748H11.8736V11.5885ZM10.4516 14.8748H7.99778L7.01908 11.5885H10.4516V14.8748ZM5.61685 6.88016H10.4516V10.1664H6.59556L5.61685 6.88016ZM18.5088 18.5965C19.1274 18.5965 19.6307 19.0997 19.6307 19.7184C19.6307 20.337 19.1274 20.8402 18.5088 20.8402C17.8902 20.8402 17.387 20.337 17.387 19.7184C17.387 19.0997 17.8902 18.5965 18.5088 18.5965ZM9.85211 18.5965C10.4707 18.5965 10.974 19.0997 10.974 19.7184C10.974 20.337 10.4707 20.8402 9.85211 20.8402C9.2335 20.8402 8.73025 20.337 8.73025 19.7184C8.73025 19.0997 9.2335 18.5965 9.85211 18.5965Z" fill="white"/>
</svg>
