<svg width="303" height="81" viewBox="0 0 303 81" fill="none" xmlns="http://www.w3.org/2000/svg">
<path d="M36.9858 48.8896C36.9858 51.0381 37.0347 52.7349 37.1323 53.98C37.2544 55.2251 37.4253 56.165 37.645 56.7998C37.8892 57.4346 38.1943 57.8374 38.5605 58.0083C38.9268 58.1792 39.354 58.2646 39.8423 58.2646C40.5015 58.2646 41.1851 58.0571 41.8931 57.6421C42.6011 57.2271 43.2969 56.6899 43.9805 56.0308C44.6641 55.3716 45.311 54.6392 45.9214 53.8335C46.5562 53.0278 47.1299 52.2466 47.6426 51.4897C48.1797 50.7085 48.6313 49.9883 48.9976 49.3291C49.3882 48.6455 49.6812 48.1206 49.8765 47.7544L51.0117 45.4839L52.5132 46.6191L51.3779 48.8896C51.1826 49.2559 50.8652 49.854 50.4258 50.6841C49.9863 51.4897 49.437 52.3931 48.7778 53.394C48.1187 54.3706 47.374 55.396 46.5439 56.4702C45.7139 57.52 44.8228 58.4844 43.8706 59.3633C42.9185 60.2422 41.9175 60.9624 40.8677 61.5239C39.8179 62.0854 38.7437 62.3662 37.645 62.3662C36.644 62.3662 35.7529 62.1953 34.9717 61.8535C34.1904 61.5117 33.5312 60.9136 32.9941 60.0591C32.457 59.1802 32.042 57.9961 31.749 56.5068C31.4805 54.9932 31.3462 53.0767 31.3462 50.7573C31.3462 49.854 31.3584 48.9995 31.3828 48.1938C31.4316 47.3638 31.4927 46.3628 31.5659 45.1909C30.3208 47.6079 28.8804 49.9395 27.2446 52.1855C25.6333 54.4316 23.8999 56.4214 22.0444 58.1548C20.189 59.8882 18.248 61.2676 16.2217 62.293C14.2197 63.3428 12.1934 63.8677 10.1426 63.8677C8.84863 63.8677 7.61572 63.6357 6.44385 63.1719C5.27197 62.708 4.23438 62 3.33105 61.0479C2.42773 60.0713 1.70752 58.8262 1.17041 57.3125C0.633301 55.7988 0.364746 53.9922 0.364746 51.8926C0.364746 48.5234 0.743164 45.2153 1.5 41.9683C2.23242 38.7212 3.25781 35.584 4.57617 32.5566C5.89453 29.5049 7.44482 26.5996 9.22705 23.8408C11.0093 21.0576 12.9258 18.4819 14.9766 16.1138C17.0273 13.7456 19.1758 11.6094 21.4219 9.70508C23.668 7.77637 25.9141 6.12842 28.1602 4.76123C30.4062 3.39404 32.5913 2.34424 34.7153 1.61182C36.8638 0.879395 38.8657 0.513184 40.7212 0.513184C42.772 0.513184 44.4077 1.03809 45.6284 2.08789C46.8491 3.11328 47.4595 4.57812 47.4595 6.48242C47.4595 7.75195 47.2031 8.99707 46.6904 10.2178C46.2021 11.4141 45.543 12.5737 44.7129 13.6968C43.9072 14.7954 42.9795 15.8452 41.9297 16.8462C40.9043 17.8228 39.8667 18.7139 38.8169 19.5195C37.7671 20.3008 36.7417 20.9966 35.7407 21.6069C34.7642 22.1929 33.9219 22.6567 33.2139 22.9985L32.1152 21.4971C32.7256 21.1797 33.4214 20.7402 34.2026 20.1787C35.0083 19.6172 35.814 18.958 36.6196 18.2012C37.4253 17.4443 38.2065 16.6143 38.9634 15.7109C39.7446 14.7832 40.4404 13.8188 41.0508 12.8179C41.6611 11.7925 42.1494 10.7427 42.5156 9.66846C42.8818 8.56982 43.0649 7.4834 43.0649 6.40918C43.0649 5.35937 42.7842 4.49268 42.2227 3.80908C41.6855 3.10107 40.8066 2.74707 39.5859 2.74707C38.1455 2.74707 36.583 3.12549 34.8984 3.88232C33.2139 4.61475 31.4805 5.66455 29.6982 7.03174C27.916 8.39893 26.1216 10.0347 24.3149 11.939C22.5327 13.8188 20.8115 15.9062 19.1514 18.2012C17.4912 20.4717 15.9409 22.9131 14.5005 25.5254C13.0845 28.1133 11.8394 30.811 10.7651 33.6187C9.71533 36.4019 8.88525 39.2461 8.2749 42.1514C7.66455 45.0322 7.35938 47.9009 7.35938 50.7573C7.35938 52.0757 7.45703 53.2964 7.65234 54.4194C7.84766 55.5181 8.16504 56.4702 8.60449 57.2759C9.04395 58.0571 9.61768 58.6675 10.3257 59.1069C11.0337 59.5464 11.9126 59.7661 12.9624 59.7661C14.2808 59.7661 15.5747 59.4731 16.8442 58.8872C18.1138 58.2769 19.3467 57.459 20.543 56.4336C21.7393 55.4082 22.8867 54.2119 23.9854 52.8447C25.1084 51.4775 26.1582 50.0127 27.1348 48.4502C28.1113 46.8877 29.0146 45.2886 29.8447 43.6528C30.6992 41.9927 31.4561 40.3569 32.1152 38.7456C32.2861 36.9146 32.4814 35.1689 32.7012 33.5088C32.9209 31.8242 33.1406 30.3228 33.3604 29.0044C33.5801 27.686 33.7876 26.5996 33.9829 25.7451C34.1782 24.8662 34.3491 24.3291 34.4956 24.1338C34.5933 23.9629 34.8008 23.7676 35.1182 23.5479C35.4355 23.3281 35.7896 23.1328 36.1802 22.9619C36.5952 22.7666 37.0103 22.6079 37.4253 22.4858C37.8403 22.3394 38.1943 22.2661 38.4873 22.2661C39.2197 22.2661 39.5859 22.6323 39.5859 23.3647C39.5859 24.0483 39.5371 24.8418 39.4395 25.7451C39.3418 26.6484 39.2075 27.5884 39.0366 28.5649C38.8657 29.5415 38.6582 30.5303 38.4141 31.5312C38.1943 32.5078 37.938 33.4111 37.645 34.2412C37.4497 36.9023 37.291 39.4658 37.1689 41.9316C37.0469 44.373 36.9858 46.6924 36.9858 48.8896ZM58.8853 57.3491C59.3247 57.3491 59.8252 57.0684 60.3867 56.5068C60.9727 55.9209 61.5952 55.1274 62.2544 54.1265C62.9136 53.1255 63.6094 51.9536 64.3418 50.6108C65.0742 49.2681 65.8311 47.8154 66.6123 46.2529L66.9785 45.4839L68.48 46.6191L68.1138 47.3882C66.8198 49.9761 65.6602 52.1978 64.6348 54.0532C63.6338 55.8843 62.6938 57.3979 61.8149 58.5942C60.936 59.7661 60.0938 60.6328 59.2881 61.1943C58.5068 61.7314 57.7012 62 56.8711 62C55.7725 62 54.8203 61.646 54.0146 60.938C53.2334 60.2056 52.5742 58.9971 52.0371 57.3125C51.5244 55.6035 51.146 53.3574 50.9019 50.5742C50.6333 47.791 50.499 44.3486 50.499 40.2471C50.499 34.4365 50.7432 29.4561 51.2314 25.3057C51.7197 21.1309 52.3789 17.7129 53.209 15.0518C54.0635 12.3662 55.04 10.4009 56.1387 9.15576C57.2617 7.88623 58.4336 7.25146 59.6543 7.25146C60.3867 7.25146 60.9971 7.55664 61.4854 8.16699C61.998 8.75293 62.2544 9.82715 62.2544 11.3896C62.2544 12.6104 62.1567 14.002 61.9614 15.5645C61.7661 17.127 61.5098 18.7993 61.1924 20.5815C60.875 22.3638 60.4966 24.2192 60.0571 26.1479C59.6177 28.0522 59.1538 29.9565 58.6655 31.8608C58.1772 33.7407 57.6768 35.5962 57.1641 37.4272C56.6514 39.2339 56.1509 40.9307 55.6626 42.5176C55.8091 45.5205 55.9678 47.9863 56.1387 49.915C56.334 51.8193 56.5537 53.3208 56.7979 54.4194C57.0664 55.5181 57.3716 56.2871 57.7134 56.7266C58.0552 57.1416 58.4458 57.3491 58.8853 57.3491ZM59.874 12.2686C59.874 11.7559 59.813 11.353 59.6909 11.0601C59.5688 10.7671 59.3735 10.6206 59.105 10.6206C58.8364 10.6206 58.5679 10.999 58.2993 11.7559C58.0308 12.5127 57.7622 13.5381 57.4937 14.832C57.2495 16.126 57.0176 17.6274 56.7979 19.3364C56.6025 21.0454 56.4194 22.8643 56.2485 24.793C56.0776 26.6973 55.9434 28.6504 55.8457 30.6523C55.748 32.6543 55.687 34.583 55.6626 36.4385C56.2485 34.29 56.7856 32.0928 57.2739 29.8467C57.7866 27.5762 58.2383 25.3789 58.6289 23.2549C59.0195 21.1309 59.3247 19.1289 59.5444 17.249C59.7642 15.3447 59.874 13.6846 59.874 12.2686ZM74.8521 57.3491C75.2915 57.3491 75.792 57.0684 76.3535 56.5068C76.9395 55.9209 77.562 55.1274 78.2212 54.1265C78.8804 53.1255 79.5762 51.9536 80.3086 50.6108C81.041 49.2681 81.7979 47.8154 82.5791 46.2529L82.9453 45.4839L84.4468 46.6191L84.0806 47.3882C82.7866 49.9761 81.627 52.1978 80.6016 54.0532C79.6006 55.8843 78.6606 57.3979 77.7817 58.5942C76.9028 59.7661 76.0605 60.6328 75.2549 61.1943C74.4736 61.7314 73.668 62 72.8379 62C71.7393 62 70.7871 61.646 69.9814 60.938C69.2002 60.2056 68.541 58.9971 68.0039 57.3125C67.4912 55.6035 67.1128 53.3574 66.8687 50.5742C66.6001 47.791 66.4658 44.3486 66.4658 40.2471C66.4658 34.4365 66.71 29.4561 67.1982 25.3057C67.6865 21.1309 68.3457 17.7129 69.1758 15.0518C70.0303 12.3662 71.0068 10.4009 72.1055 9.15576C73.2285 7.88623 74.4004 7.25146 75.6211 7.25146C76.3535 7.25146 76.9639 7.55664 77.4521 8.16699C77.9648 8.75293 78.2212 9.82715 78.2212 11.3896C78.2212 12.6104 78.1235 14.002 77.9282 15.5645C77.7329 17.127 77.4766 18.7993 77.1592 20.5815C76.8418 22.3638 76.4634 24.2192 76.0239 26.1479C75.5845 28.0522 75.1206 29.9565 74.6323 31.8608C74.144 33.7407 73.6436 35.5962 73.1309 37.4272C72.6182 39.2339 72.1177 40.9307 71.6294 42.5176C71.7759 45.5205 71.9346 47.9863 72.1055 49.915C72.3008 51.8193 72.5205 53.3208 72.7646 54.4194C73.0332 55.5181 73.3384 56.2871 73.6802 56.7266C74.022 57.1416 74.4126 57.3491 74.8521 57.3491ZM75.8408 12.2686C75.8408 11.7559 75.7798 11.353 75.6577 11.0601C75.5356 10.7671 75.3403 10.6206 75.0718 10.6206C74.8032 10.6206 74.5347 10.999 74.2661 11.7559C73.9976 12.5127 73.729 13.5381 73.4604 14.832C73.2163 16.126 72.9844 17.6274 72.7646 19.3364C72.5693 21.0454 72.3862 22.8643 72.2153 24.793C72.0444 26.6973 71.9102 28.6504 71.8125 30.6523C71.7148 32.6543 71.6538 34.583 71.6294 36.4385C72.2153 34.29 72.7524 32.0928 73.2407 29.8467C73.7534 27.5762 74.2051 25.3789 74.5957 23.2549C74.9863 21.1309 75.2915 19.1289 75.5112 17.249C75.731 15.3447 75.8408 13.6846 75.8408 12.2686ZM105.138 52.918C105.138 54.3096 105.26 55.4814 105.504 56.4336C105.748 57.3857 106.175 57.8618 106.786 57.8618C107.152 57.8618 107.542 57.6909 107.958 57.3491C108.397 56.9829 108.897 56.397 109.459 55.5913C110.021 54.7856 110.655 53.748 111.363 52.4785C112.096 51.1846 112.926 49.6099 113.854 47.7544L114.952 45.4839L116.454 46.6191L115.355 48.8896C114.33 50.9404 113.365 52.7837 112.462 54.4194C111.583 56.0308 110.741 57.3979 109.935 58.521C109.129 59.644 108.336 60.5107 107.555 61.1211C106.798 61.707 106.041 62 105.284 62C104.479 62 103.795 61.7803 103.233 61.3408C102.696 60.9014 102.245 60.3032 101.878 59.5464C101.512 58.7651 101.231 57.874 101.036 56.873C100.841 55.8477 100.707 54.7612 100.633 53.6138C100.047 54.7856 99.4004 55.8843 98.6924 56.9097C97.9844 57.9106 97.2397 58.7896 96.4585 59.5464C95.7017 60.3032 94.9082 60.9014 94.0781 61.3408C93.248 61.7803 92.418 62 91.5879 62C90.3672 62 89.1831 61.7437 88.0356 61.231C86.8882 60.7183 85.8628 59.937 84.9595 58.8872C84.0806 57.8374 83.3726 56.519 82.8354 54.9321C82.2983 53.3208 82.0298 51.4287 82.0298 49.2559C82.0298 46.7168 82.3594 44.3975 83.0186 42.2979C83.6777 40.1738 84.5688 38.355 85.6919 36.8413C86.8149 35.3032 88.1089 34.1191 89.5737 33.2891C91.0386 32.4346 92.5767 32.0073 94.188 32.0073C95.1646 32.0073 96.0679 32.2271 96.8979 32.6665C97.728 33.106 98.4482 33.6431 99.0586 34.2778C99.6934 34.8882 100.218 35.5474 100.633 36.2554C101.048 36.939 101.329 37.5249 101.476 38.0132L101.915 34.4609C101.964 33.9971 102.184 33.6064 102.574 33.2891C102.989 32.9717 103.441 32.7275 103.929 32.5566C104.417 32.3613 104.894 32.2271 105.357 32.1538C105.821 32.0562 106.151 32.0073 106.346 32.0073C106.639 32.0073 106.834 32.0562 106.932 32.1538C107.03 32.2515 107.079 32.4468 107.079 32.7397C107.079 33.106 106.969 33.8506 106.749 34.9736C106.554 36.0723 106.334 37.4883 106.09 39.2217C105.87 40.9307 105.65 42.9448 105.431 45.2642C105.235 47.5835 105.138 50.1348 105.138 52.918ZM101.109 43.25C101.109 42.127 100.938 41.0283 100.597 39.9541C100.255 38.8555 99.791 37.8911 99.2051 37.061C98.6191 36.2065 97.9355 35.5229 97.1543 35.0103C96.3975 34.4976 95.5918 34.2412 94.7373 34.2412C93.6875 34.2412 92.6987 34.5464 91.771 35.1567C90.8677 35.7427 90.0742 36.585 89.3906 37.6836C88.7314 38.7578 88.2065 40.064 87.8159 41.6021C87.4253 43.1157 87.23 44.7881 87.23 46.6191C87.23 50.2812 87.8037 53.0767 88.9512 55.0054C90.0986 56.9097 91.6245 57.8618 93.5288 57.8618C94.3589 57.8618 95.2134 57.5322 96.0923 56.873C96.9956 56.1895 97.8135 55.2251 98.5459 53.98C99.3027 52.7104 99.9131 51.1724 100.377 49.3657C100.865 47.5591 101.109 45.5205 101.109 43.25ZM151.17 0.586426C151.512 1.51416 151.927 2.90576 152.416 4.76123C152.904 6.59229 153.441 8.71631 154.027 11.1333C154.613 13.5503 155.223 16.1748 155.858 19.0068C156.517 21.8389 157.164 24.7197 157.799 27.6494C158.458 30.5791 159.093 33.4722 159.703 36.3286C160.338 39.1851 160.924 41.834 161.461 44.2754C161.998 46.7168 162.474 48.8896 162.889 50.7939C163.329 52.6738 163.67 54.1143 163.915 55.1152C164.452 53.748 165.074 52.0635 165.782 50.0615C166.515 48.0596 167.296 45.8745 168.126 43.5063C168.98 41.1138 169.859 38.5869 170.763 35.9258C171.69 33.2402 172.618 30.5425 173.546 27.8325C174.498 25.0981 175.45 22.4004 176.402 19.7393C177.354 17.0781 178.27 14.5635 179.149 12.1953C180.028 9.80273 180.858 7.61768 181.639 5.64014C182.445 3.63818 183.165 1.95361 183.8 0.586426L186.803 0.952637C186.363 2.49072 185.924 4.28516 185.484 6.33594C185.045 8.3623 184.618 10.5718 184.203 12.9644C183.812 15.3325 183.434 17.835 183.067 20.4717C182.701 23.084 182.384 25.7207 182.115 28.3818C181.847 31.043 181.627 33.6797 181.456 36.292C181.31 38.9043 181.236 41.3945 181.236 43.7627C181.236 48.377 181.566 51.8804 182.225 54.2729C182.884 56.6655 183.91 57.8618 185.301 57.8618C185.912 57.8618 186.498 57.6177 187.059 57.1294C187.645 56.6411 188.255 55.9087 188.89 54.9321C189.549 53.9556 190.245 52.7471 190.978 51.3066C191.734 49.8418 192.589 48.1572 193.541 46.2529L193.907 45.4839L195.409 46.6191L195.042 47.3882C193.822 49.8296 192.723 51.9658 191.747 53.7969C190.794 55.6035 189.867 57.1172 188.963 58.3379C188.084 59.5586 187.193 60.4741 186.29 61.0845C185.411 61.6948 184.447 62 183.397 62C181.932 62 180.711 61.646 179.735 60.938C178.758 60.2056 177.965 59.1802 177.354 57.8618C176.769 56.519 176.341 54.8955 176.073 52.9912C175.829 51.0869 175.707 48.9385 175.707 46.5459C175.707 43.9336 175.841 41.1992 176.109 38.3428C176.378 35.4619 176.695 32.6665 177.062 29.9565C177.452 27.2466 177.843 24.7441 178.233 22.4492C178.648 20.1299 179.002 18.2134 179.295 16.6997L162.779 63.8677L159.776 63.1353C159.776 62.6226 159.618 61.5361 159.3 59.876C158.983 58.1914 158.568 56.165 158.055 53.7969C157.542 51.4043 156.957 48.7798 156.297 45.9233C155.663 43.0425 155.003 40.1494 154.32 37.2441C152.733 30.4082 150.926 22.8154 148.9 14.4658C148.973 16.2236 149.059 17.9937 149.156 19.7759C149.229 21.314 149.291 22.9619 149.339 24.7197C149.413 26.4531 149.449 28.0767 149.449 29.5903C149.449 34.0093 149.193 37.9277 148.68 41.3457C148.192 44.7637 147.521 47.7422 146.666 50.2812C145.812 52.7959 144.811 54.9199 143.663 56.6533C142.516 58.3867 141.295 59.7783 140.001 60.8281C138.707 61.8779 137.376 62.6348 136.009 63.0986C134.667 63.5625 133.348 63.7944 132.054 63.7944C130.76 63.7944 129.552 63.5747 128.429 63.1353C127.281 62.7202 126.292 62.1343 125.462 61.3774C124.608 60.5962 123.937 59.6929 123.448 58.6675C122.936 57.6177 122.679 56.4824 122.679 55.2617C122.679 53.8213 122.923 52.4419 123.412 51.1235C123.875 49.8052 124.535 48.5723 125.389 47.4248C126.219 46.2529 127.208 45.1665 128.355 44.1655C129.503 43.1646 130.736 42.2368 132.054 41.3823L133.153 42.5176C132.225 43.1768 131.371 43.9214 130.589 44.7515C129.808 45.5571 129.137 46.436 128.575 47.3882C128.014 48.3159 127.574 49.2925 127.257 50.3179C126.939 51.3188 126.781 52.332 126.781 53.3574C126.781 54.3096 126.939 55.2007 127.257 56.0308C127.55 56.8608 127.989 57.5933 128.575 58.228C129.137 58.8628 129.82 59.3633 130.626 59.7295C131.407 60.0957 132.298 60.2788 133.299 60.2788C134.325 60.2788 135.387 60.0713 136.485 59.6562C137.584 59.2168 138.646 58.5088 139.671 57.5322C140.721 56.5312 141.71 55.2251 142.638 53.6138C143.59 51.978 144.408 49.9761 145.091 47.6079C145.799 45.2153 146.361 42.4199 146.776 39.2217C147.191 36.0234 147.398 32.3369 147.398 28.1621C147.398 26.9658 147.362 25.562 147.289 23.9507C147.24 22.3394 147.154 20.6548 147.032 18.897C146.935 17.1392 146.812 15.3813 146.666 13.6235C146.52 11.8413 146.361 10.1934 146.19 8.67969C146.043 7.1416 145.873 5.79883 145.677 4.65137C145.506 3.47949 145.335 2.625 145.165 2.08789L151.17 0.586426ZM224.596 46.6191L224.193 47.3882C223.363 49.0483 222.252 50.3789 220.86 51.3799C219.493 52.3564 218.004 52.9912 216.393 53.2842C215.953 54.5293 215.379 55.689 214.671 56.7632C213.988 57.813 213.194 58.7285 212.291 59.5098C211.412 60.291 210.411 60.9014 209.288 61.3408C208.189 61.7803 206.993 62 205.699 62C203.819 62 202.123 61.6094 200.609 60.8281C199.12 60.0225 197.85 58.9482 196.8 57.6055C195.75 56.2383 194.945 54.6514 194.383 52.8447C193.822 51.0137 193.541 49.0605 193.541 46.9854C193.541 45.1787 193.749 43.543 194.164 42.0781C194.579 40.5889 195.104 39.2705 195.738 38.123C196.373 36.9512 197.081 35.938 197.862 35.0835C198.644 34.2046 199.413 33.4844 200.169 32.9229C200.926 32.3613 201.61 31.9463 202.22 31.6777C202.855 31.3848 203.331 31.2383 203.648 31.2383L204.125 32.52C203.124 33.2524 202.232 34.2778 201.451 35.5962C200.768 36.7192 200.145 38.2085 199.583 40.064C199.046 41.9194 198.778 44.2266 198.778 46.9854C198.778 48.6699 198.937 50.3057 199.254 51.8926C199.571 53.4795 200.035 54.8833 200.646 56.104C201.256 57.3247 202 58.3013 202.879 59.0337C203.783 59.7661 204.796 60.1323 205.919 60.1323C207.457 60.1323 208.727 59.522 209.728 58.3013C210.753 57.0562 211.51 55.3594 211.998 53.2109C210.729 52.9424 209.52 52.4419 208.373 51.7095C207.225 50.9771 206.212 50.0737 205.333 48.9995C204.454 47.9009 203.746 46.6436 203.209 45.2275C202.696 43.8115 202.44 42.2734 202.44 40.6133C202.44 39.2461 202.611 38.0498 202.953 37.0244C203.319 35.9746 203.795 35.1079 204.381 34.4243C204.967 33.7163 205.638 33.1914 206.395 32.8496C207.176 32.4834 207.994 32.3003 208.849 32.3003C209.85 32.3003 210.875 32.5933 211.925 33.1792C212.975 33.7407 213.927 34.5952 214.781 35.7427C215.636 36.8657 216.332 38.2817 216.869 39.9907C217.406 41.6997 217.674 43.6895 217.674 45.96C217.674 46.8145 217.625 47.6567 217.528 48.4868C217.43 49.3169 217.284 50.1226 217.088 50.9038C218.26 50.562 219.322 50.0127 220.274 49.2559C221.251 48.499 222.057 47.498 222.691 46.2529L223.094 45.4839L224.596 46.6191ZM204.857 40.3203C204.857 41.7607 205.052 43.0913 205.443 44.312C205.858 45.5083 206.407 46.5703 207.091 47.498C207.774 48.4014 208.568 49.1582 209.471 49.7686C210.375 50.3789 211.339 50.8062 212.364 51.0503C212.486 50.3667 212.56 49.6587 212.584 48.9263C212.633 48.1694 212.657 47.4004 212.657 46.6191C212.657 44.8857 212.523 43.3232 212.254 41.9316C211.986 40.5156 211.632 39.3193 211.192 38.3428C210.753 37.3418 210.24 36.5728 209.654 36.0356C209.068 35.4985 208.47 35.23 207.86 35.23C207.03 35.23 206.322 35.6816 205.736 36.585C205.15 37.4639 204.857 38.709 204.857 40.3203ZM222.765 46.2529L223.131 45.4839C223.497 44.7515 223.827 43.9946 224.12 43.2134C224.437 42.4321 224.706 41.6997 224.925 41.0161C225.145 40.3081 225.316 39.6855 225.438 39.1484C225.56 38.5869 225.646 38.1597 225.694 37.8667C225.06 37.7935 224.449 37.6348 223.863 37.3906C223.277 37.1465 222.765 36.8169 222.325 36.4019C221.886 35.9868 221.544 35.4985 221.3 34.937C221.031 34.3755 220.897 33.7407 220.897 33.0327C220.897 32.4712 220.995 31.9707 221.19 31.5312C221.385 31.0918 221.654 30.7256 221.996 30.4326C222.313 30.1396 222.679 29.9199 223.094 29.7734C223.485 29.6025 223.9 29.5171 224.339 29.5171C224.925 29.5171 225.438 29.6392 225.877 29.8833C226.317 30.1274 226.683 30.457 226.976 30.8721C227.269 31.2627 227.489 31.7266 227.635 32.2637C227.782 32.7764 227.855 33.3135 227.855 33.875C228.539 33.875 229.271 33.7773 230.052 33.582C230.858 33.3867 231.664 33.1792 232.469 32.9595C233.275 32.7153 234.068 32.4956 234.85 32.3003C235.631 32.105 236.351 32.0073 237.01 32.0073C237.572 32.0073 238.023 32.1294 238.365 32.3735C238.707 32.5933 238.878 32.9717 238.878 33.5088C238.878 33.8994 238.756 34.5464 238.512 35.4497C238.292 36.353 238.011 37.4028 237.669 38.5991C237.328 39.7954 236.949 41.1016 236.534 42.5176C236.144 43.9092 235.777 45.3252 235.436 46.7656C235.094 48.1816 234.801 49.561 234.557 50.9038C234.337 52.2466 234.227 53.4429 234.227 54.4927C234.227 55.811 234.374 56.7021 234.667 57.166C234.959 57.6299 235.484 57.8618 236.241 57.8618C236.559 57.8618 236.949 57.7275 237.413 57.459C237.901 57.166 238.487 56.6167 239.171 55.811C239.854 54.981 240.66 53.8091 241.588 52.2954C242.54 50.7573 243.639 48.7432 244.884 46.2529L245.25 45.4839L246.751 46.6191L246.385 47.3882C244.92 50.3179 243.614 52.7227 242.467 54.6025C241.319 56.4824 240.257 57.9717 239.281 59.0703C238.329 60.1689 237.425 60.938 236.571 61.3774C235.716 61.7925 234.862 62 234.007 62C232.567 62 231.395 61.4507 230.492 60.3521C229.588 59.2534 229.137 57.5566 229.137 55.2617C229.137 54.0166 229.308 52.7227 229.649 51.3799C229.991 50.0371 230.418 48.7065 230.931 47.3882C231.444 46.0454 232.018 44.7271 232.652 43.4331C233.287 42.1392 233.885 40.9185 234.447 39.771C235.033 38.5991 235.558 37.5127 236.021 36.5117C236.485 35.5107 236.815 34.6318 237.01 33.875L236.791 33.6553C236.4 33.6553 235.875 33.8628 235.216 34.2778C234.557 34.6929 233.812 35.1689 232.982 35.7061C232.176 36.2188 231.31 36.707 230.382 37.1709C229.454 37.6348 228.514 37.9155 227.562 38.0132C227.513 38.355 227.403 38.8555 227.232 39.5146C227.086 40.1738 226.878 40.9062 226.61 41.7119C226.341 42.5176 226.036 43.3477 225.694 44.2021C225.353 45.0566 224.999 45.8623 224.632 46.6191L224.266 47.3882L222.765 46.2529ZM224.559 31.5679C224.339 31.5679 224.156 31.6411 224.01 31.7876C223.863 31.9341 223.79 32.105 223.79 32.3003C223.79 32.5933 223.863 32.8496 224.01 33.0693C224.156 33.2646 224.339 33.4355 224.559 33.582C224.779 33.7041 224.999 33.8018 225.218 33.875C225.462 33.9238 225.67 33.9482 225.841 33.9482C225.841 33.2646 225.731 32.7031 225.511 32.2637C225.292 31.7998 224.974 31.5679 224.559 31.5679ZM275.938 46.6191L275.536 47.3882C274.706 49.0483 273.595 50.3789 272.203 51.3799C270.836 52.3564 269.347 52.9912 267.735 53.2842C267.296 54.5293 266.722 55.689 266.014 56.7632C265.331 57.813 264.537 58.7285 263.634 59.5098C262.755 60.291 261.754 60.9014 260.631 61.3408C259.532 61.7803 258.336 62 257.042 62C255.162 62 253.465 61.6094 251.952 60.8281C250.462 60.0225 249.193 58.9482 248.143 57.6055C247.093 56.2383 246.288 54.6514 245.726 52.8447C245.165 51.0137 244.884 49.0605 244.884 46.9854C244.884 45.1787 245.091 43.543 245.506 42.0781C245.921 40.5889 246.446 39.2705 247.081 38.123C247.716 36.9512 248.424 35.938 249.205 35.0835C249.986 34.2046 250.755 33.4844 251.512 32.9229C252.269 32.3613 252.953 31.9463 253.563 31.6777C254.198 31.3848 254.674 31.2383 254.991 31.2383L255.467 32.52C254.466 33.2524 253.575 34.2778 252.794 35.5962C252.11 36.7192 251.488 38.2085 250.926 40.064C250.389 41.9194 250.121 44.2266 250.121 46.9854C250.121 48.6699 250.279 50.3057 250.597 51.8926C250.914 53.4795 251.378 54.8833 251.988 56.104C252.599 57.3247 253.343 58.3013 254.222 59.0337C255.125 59.7661 256.139 60.1323 257.262 60.1323C258.8 60.1323 260.069 59.522 261.07 58.3013C262.096 57.0562 262.853 55.3594 263.341 53.2109C262.071 52.9424 260.863 52.4419 259.715 51.7095C258.568 50.9771 257.555 50.0737 256.676 48.9995C255.797 47.9009 255.089 46.6436 254.552 45.2275C254.039 43.8115 253.783 42.2734 253.783 40.6133C253.783 39.2461 253.954 38.0498 254.295 37.0244C254.662 35.9746 255.138 35.1079 255.724 34.4243C256.31 33.7163 256.981 33.1914 257.738 32.8496C258.519 32.4834 259.337 32.3003 260.191 32.3003C261.192 32.3003 262.218 32.5933 263.268 33.1792C264.317 33.7407 265.27 34.5952 266.124 35.7427C266.979 36.8657 267.674 38.2817 268.211 39.9907C268.749 41.6997 269.017 43.6895 269.017 45.96C269.017 46.8145 268.968 47.6567 268.871 48.4868C268.773 49.3169 268.626 50.1226 268.431 50.9038C269.603 50.562 270.665 50.0127 271.617 49.2559C272.594 48.499 273.399 47.498 274.034 46.2529L274.437 45.4839L275.938 46.6191ZM256.2 40.3203C256.2 41.7607 256.395 43.0913 256.786 44.312C257.201 45.5083 257.75 46.5703 258.434 47.498C259.117 48.4014 259.911 49.1582 260.814 49.7686C261.717 50.3789 262.682 50.8062 263.707 51.0503C263.829 50.3667 263.902 49.6587 263.927 48.9263C263.976 48.1694 264 47.4004 264 46.6191C264 44.8857 263.866 43.3232 263.597 41.9316C263.329 40.5156 262.975 39.3193 262.535 38.3428C262.096 37.3418 261.583 36.5728 260.997 36.0356C260.411 35.4985 259.813 35.23 259.203 35.23C258.373 35.23 257.665 35.6816 257.079 36.585C256.493 37.4639 256.2 38.709 256.2 40.3203ZM295.458 39.4414C295.458 40.7598 295.128 42.0903 294.469 43.4331C293.834 44.7759 293.004 46.0698 291.979 47.3149C290.953 48.5601 289.806 49.7197 288.536 50.7939C287.291 51.8682 286.058 52.7837 284.837 53.5405C285.887 54.1753 286.913 54.981 287.914 55.9575C288.915 56.9341 289.806 58.0938 290.587 59.4365C291.295 58.6797 292.076 57.8374 292.931 56.9097C293.785 55.9575 294.64 54.9199 295.494 53.7969C296.373 52.6738 297.228 51.4897 298.058 50.2446C298.888 48.9751 299.657 47.6445 300.365 46.2529L300.731 45.4839L302.232 46.6191L301.866 47.3882C301.158 48.8042 300.365 50.1592 299.486 51.4531C298.631 52.7227 297.74 53.9312 296.812 55.0786C295.909 56.2261 294.994 57.3125 294.066 58.3379C293.163 59.3633 292.308 60.3398 291.502 61.2676C291.917 62.293 292.247 63.3794 292.491 64.5269C292.735 65.6987 292.857 66.9805 292.857 68.3721C292.857 70.6182 292.65 72.5225 292.235 74.085C291.844 75.6719 291.295 76.9536 290.587 77.9302C289.903 78.9312 289.073 79.6514 288.097 80.0908C287.145 80.5303 286.107 80.75 284.984 80.75C283.592 80.75 282.433 80.3105 281.505 79.4316C280.577 78.5771 280.113 77.3931 280.113 75.8794C280.113 74.9272 280.284 73.9385 280.626 72.9131C280.992 71.9121 281.48 70.8623 282.091 69.7637C282.726 68.6895 283.458 67.5786 284.288 66.4312C285.118 65.2837 286.021 64.0874 286.998 62.8423C286.681 61.646 286.302 60.5962 285.863 59.6929C285.423 58.7651 284.959 57.9839 284.471 57.3491C284.007 56.7144 283.543 56.2139 283.08 55.8477C282.64 55.457 282.25 55.1885 281.908 55.042C280.858 55.4326 280.052 55.6279 279.491 55.6279C278.661 55.6279 278.038 55.4448 277.623 55.0786C277.232 54.688 277.037 54.2729 277.037 53.8335C277.037 53.3452 277.257 52.9058 277.696 52.5151C278.136 52.1001 278.783 51.8926 279.637 51.8926C280.028 51.8926 280.443 51.9414 280.882 52.0391C281.322 52.1367 281.786 52.2588 282.274 52.4053C283.446 51.7949 284.532 51.0259 285.533 50.0981C286.534 49.146 287.413 48.1206 288.17 47.022C288.927 45.8989 289.513 44.7271 289.928 43.5063C290.367 42.2612 290.587 41.0527 290.587 39.8809C290.587 39.124 290.489 38.4282 290.294 37.7935C290.123 37.1587 289.842 36.6094 289.452 36.1455C289.085 35.6572 288.622 35.2788 288.06 35.0103C287.499 34.7417 286.839 34.6074 286.083 34.6074C285.057 34.6074 284.105 34.937 283.226 35.5962C282.347 36.231 281.517 37.061 280.736 38.0864C279.979 39.1118 279.271 40.2471 278.612 41.4922C277.953 42.7373 277.318 43.9458 276.708 45.1177L275.609 47.3882L274.107 46.2529L275.206 43.9824C275.816 42.7373 276.5 41.4189 277.257 40.0273C278.038 38.6357 278.917 37.3418 279.894 36.1455C280.895 34.9492 282.018 33.9604 283.263 33.1792C284.532 32.3979 285.973 32.0073 287.584 32.0073C288.805 32.0073 289.903 32.2026 290.88 32.5933C291.856 32.9595 292.674 33.4722 293.333 34.1313C294.017 34.7905 294.542 35.5718 294.908 36.4751C295.274 37.3784 295.458 38.3672 295.458 39.4414ZM287.914 70.2397C287.914 69.312 287.877 68.4331 287.804 67.603C287.73 66.7729 287.633 66.0039 287.511 65.2959C285.973 67.2734 284.703 69.1289 283.702 70.8623C282.701 72.6201 282.201 74.2192 282.201 75.6597C282.201 76.4165 282.408 77.0757 282.823 77.6372C283.263 78.2231 283.849 78.5161 284.581 78.5161C284.972 78.5161 285.362 78.4307 285.753 78.2598C286.168 78.1133 286.534 77.7593 286.852 77.1978C287.169 76.6362 287.425 75.8062 287.621 74.7075C287.816 73.6089 287.914 72.1196 287.914 70.2397Z" fill="#D40597"/>
</svg>
